<?xml version="1.0" encoding="UTF-8" standalone="no"?>
<svg
   xmlns:dc="http://purl.org/dc/elements/1.1/"
   xmlns:cc="http://creativecommons.org/ns#"
   xmlns:rdf="http://www.w3.org/1999/02/22-rdf-syntax-ns#"
   xmlns:svg="http://www.w3.org/2000/svg"
   xmlns="http://www.w3.org/2000/svg"
   viewBox="0 0 6000 6000"
   height="6000"
   width="6000"
   xml:space="preserve"
   id="svg2"
   version="1.1"><metadata
     id="metadata8"><rdf:RDF><cc:Work
         rdf:about=""><dc:format>image/svg+xml</dc:format><dc:type
           rdf:resource="http://purl.org/dc/dcmitype/StillImage" /></cc:Work></rdf:RDF></metadata><defs
     id="defs6"><clipPath
       id="clipPath18"
       clipPathUnits="userSpaceOnUse"><path
         id="path16"
         d="M 0,4500 H 4500 V 0 H 0 Z" /></clipPath></defs><g
     transform="matrix(1.3333333,0,0,-1.3333333,0,6000)"
     id="g10"><g
       id="g12"><g
         clip-path="url(#clipPath18)"
         id="g14"><g
           transform="translate(2249.9688,4467.3906)"
           id="g20"><path
             id="path22"
             style="fill:#ff6600;fill-opacity:1;fill-rule:nonzero;stroke:none"
             d="m 0,0 c -1224.422,0 -2217.391,-992.906 -2217.391,-2217.359 0,-244.75 39.672,-480.172 112.938,-700.391 h 663.156 v 1865.641 L 0,-2493.438 1441.313,-1052.109 V -2917.75 H 2104.5 c 73.281,220.219 112.953,455.641 112.953,700.391 C 2217.453,-992.906 1224.484,0 0,0" /></g><g
           transform="translate(1918.5469,1642.5938)"
           id="g24"><path
             id="path26"
             style="fill:#4c4c4c;fill-opacity:1;fill-rule:nonzero;stroke:none"
             d="M 0,0 -629,629.031 V -544.891 h -240.469 -240.437 -453.438 c 389.25,-638.609 1092.282,-1065.093 1894.735,-1065.093 802.437,0 1505.531,426.484 1894.75,1065.093 h -453.469 -430.063 -50.812 V 629.031 L 662.75,0 331.391,-331.359 0.031,0 Z" /></g></g></g></g></svg>